<?xml version="1.0" encoding="UTF-8"?>
<svg width="1200pt" height="1200pt" version="1.1" viewBox="0 0 1200 1200" xmlns="http://www.w3.org/2000/svg">
 <path d="m287.15 343.96c-23.582 0-42.332 18.75-42.332 42.332v119.23h211.61c9.4727-21.773 27.145-39.125 49.105-48.516v-113.05h-218.39zm233.5 0v117.46c-0.003906 3.1953-2.0117 6.043-5.0195 7.1133-21.93 7.7969-39.25 25.055-47.086 46.965v0.003906c-0.007813 0.039062-0.019531 0.078125-0.027344 0.12109-0.72266 2.0234-1.3594 4.0898-1.918 6.1836-0.007812 0-0.023437 0.074218-0.03125 0.10547-0.52734 1.9844-0.95703 4.0078-1.3281 6.0508-0.03125 0.16797-0.074219 0.33203-0.10547 0.5-0.30078 1.7148-0.50781 3.457-0.69531 5.2109-0.054687 0.51953-0.14844 1.0273-0.19141 1.5508-0.18359 2.1719-0.28125 4.375-0.28125 6.5977v116.34c0 2.2227 0.097656 4.4258 0.28125 6.5977 0.046875 0.51953 0.14062 1.0312 0.19141 1.5508 0.18359 1.7539 0.39453 3.4961 0.69531 5.2109 0.03125 0.16797 0.074219 0.33203 0.10547 0.5 0.37109 2.043 0.80078 4.0664 1.3281 6.0508 0.007813 0 0.023438 0.074219 0.03125 0.10547 0.55859 2.0938 1.1953 4.1602 1.918 6.1836v-0.003906c0.007813 0.03125 0.019531 0.058593 0.027344 0.089843 0.007813 0 0.007813 0 0.015625 0.074219 7.8398 21.902 25.148 39.156 47.07 46.953 3.0078 1.0742 5.0156 3.9219 5.0195 7.1133v117.46h158.7v-117.46c0-3.1914 2.0117-6.0391 5.0195-7.1133 21.93-7.7969 39.25-25.055 47.086-46.965h-0.003906c0.011719-0.039062 0.019531-0.082031 0.03125-0.12109 0.72266-2.0234 1.3594-4.0898 1.918-6.1836 0.007812 0 0.023437-0.074219 0.03125-0.10547 0.52734-1.9844 0.95703-4.0078 1.3281-6.0508 0.03125-0.16797 0.074219-0.33203 0.10547-0.5 0.30078-1.7148 0.50781-3.457 0.69531-5.2109 0.054688-0.51953 0.14844-1.0273 0.19141-1.5508 0.18359-2.1719 0.28125-4.375 0.28125-6.5977v-116.34c0-2.2227-0.097656-4.4258-0.28125-6.5977-0.046875-0.51953-0.14062-1.0312-0.19141-1.5508-0.18359-1.7539-0.39453-3.4961-0.69531-5.2109-0.03125-0.16797-0.074219-0.33203-0.10547-0.5-0.37109-2.043-0.80078-4.0664-1.3281-6.0508-0.007813 0-0.023438-0.074219-0.03125-0.10547-0.55859-2.0938-1.1953-4.1602-1.918-6.1836v0.003906c-0.015625-0.046875-0.03125-0.09375-0.042969-0.13672-7.8398-21.902-25.148-39.156-47.07-46.953-3.0078-1.0742-5.0195-3.9219-5.0195-7.1133v-117.46h-158.7zm173.81 0v113.05c21.965 9.3906 39.637 26.742 49.105 48.516h211.61v-119.23c0-23.582-18.762-42.332-42.348-42.332h-218.38zm-449.65 176.68v158.7h206.52c-1.6133-6.7852-2.4805-13.867-2.4805-21.18v-116.34c0-7.3125 0.86719-14.395 2.4805-21.18zm503.85 0c1.6133 6.7852 2.4805 13.867 2.4805 21.18v116.34c0 7.3125-0.86719 14.395-2.4805 21.18h206.52v-158.7zm-503.85 173.81v119.25c0 23.582 18.75 42.332 42.332 42.332h218.39v-113.06c-21.965-9.3945-39.637-26.742-49.105-48.516zm498.76 0c-9.4727 21.773-27.145 39.125-49.105 48.516v113.06h218.38c23.582 0 42.348-18.75 42.348-42.332v-119.25z" fill="#fff"/>
</svg>
