<?xml version="1.0" encoding="UTF-8"?>
<svg width="1200pt" height="1200pt" version="1.1" viewBox="0 0 1200 1200" xmlns="http://www.w3.org/2000/svg">
 <path d="m1012.5 243.75c-118.59 0.042969-234.54-35.062-333.19-100.88l-69-45.938c-3.0625-2.0156-6.6484-3.0898-10.312-3.0898s-7.25 1.0742-10.312 3.0898l-69 45.938c-98.652 65.812-214.6 100.92-333.19 100.88-4.9727 0-9.7422 1.9766-13.258 5.4922-3.5156 3.5156-5.4922 8.2852-5.4922 13.258v257.62c0.09375 85.734 20.418 170.23 59.316 246.64 38.902 76.398 95.281 142.54 164.56 193.05l196.31 142.88c3.2109 2.3477 7.0859 3.6094 11.062 3.6094s7.8516-1.2617 11.062-3.6094l196.31-142.88c69.277-50.508 125.66-116.65 164.56-193.05 38.898-76.402 59.223-160.9 59.316-246.64v-257.62c0-4.9727-1.9766-9.7422-5.4922-13.258-3.5156-3.5156-8.2852-5.4922-13.258-5.4922z" fill="#fff"/>
</svg>
