<?xml version="1.0" encoding="UTF-8"?>
<svg width="1200pt" height="1200pt" version="1.1" viewBox="0 0 1200 1200" xmlns="http://www.w3.org/2000/svg">
 <g fill="#fff">
  <path d="m636.26 393.14c55.254 55.258 85.68 128.72 85.68 206.86s-30.426 151.61-85.68 206.87c-6.6016 6.5938-9.8984 15.246-9.8984 23.891 0 8.6445 3.3008 17.297 9.8984 23.891 13.191 13.199 34.59 13.199 47.781 0 68.027-68.016 105.48-158.45 105.48-254.65 0-96.191-37.453-186.63-105.48-254.65-13.191-13.199-34.59-13.199-47.781 0-13.199 13.188-13.199 34.598 0 47.785z"/>
  <path d="m468.16 494.09c-13.199-13.191-34.59-13.191-47.789 0.007812-6.5938 6.6016-9.8945 15.246-9.8945 23.891s3.3008 17.297 9.8984 23.898c15.488 15.488 24.023 36.129 24.023 58.117 0 21.992-8.5352 42.637-24.023 58.133-13.199 13.188-13.199 34.598 0 47.781 13.191 13.199 34.59 13.199 47.781 0 28.262-28.254 43.824-65.867 43.824-105.91 0.003906-40.039-15.559-77.66-43.82-105.91z"/>
  <path d="m518.42 756.39c0 8.6445 3.3008 17.297 9.8984 23.891 13.191 13.199 34.59 13.199 47.781 0 48.098-48.086 74.582-112.11 74.582-180.28s-26.484-132.2-74.578-180.28c-13.191-13.191-34.59-13.191-47.789 0.007812-13.188 13.199-13.191 34.59 0.007812 47.789 35.32 35.316 54.777 82.375 54.777 132.48 0 50.121-19.457 97.168-54.777 132.5-6.6016 6.5938-9.9023 15.246-9.9023 23.891z"/>
 </g>
</svg>
